<svg width="24" height="24" viewBox="0 0 24 24" fill="none" xmlns="http://www.w3.org/2000/svg">
<path d="M10.2277 10.3896C9.66933 10.3896 9.22852 10.8896 9.22852 11.4996C9.22852 12.1096 9.67913 12.6096 10.2277 12.6096C10.7861 12.6096 11.2269 12.1096 11.2269 11.4996C11.2367 10.8896 10.7861 10.3896 10.2277 10.3896ZM13.8032 10.3896C13.2448 10.3896 12.804 10.8896 12.804 11.4996C12.804 12.1096 13.2546 12.6096 13.8032 12.6096C14.3616 12.6096 14.8024 12.1096 14.8024 11.4996C14.8024 10.8896 14.3616 10.3896 13.8032 10.3896Z" fill="#A9A9A9"/>
<path d="M18.5624 2H5.4359C4.32896 2 3.42773 2.92 3.42773 4.06V17.58C3.42773 18.72 4.32896 19.64 5.4359 19.64H16.5445L16.0253 17.79L17.2792 18.98L18.4645 20.1L20.5706 22V4.06C20.5706 2.92 19.6694 2 18.5624 2ZM14.7812 15.06C14.7812 15.06 14.4286 14.63 14.1347 14.25C15.4179 13.88 15.9077 13.06 15.9077 13.06C15.5061 13.33 15.1241 13.52 14.7812 13.65C14.2914 13.86 13.8212 14 13.3608 14.08C12.4204 14.26 11.5583 14.21 10.8237 14.07C10.2653 13.96 9.78529 13.8 9.38365 13.64C9.15835 13.55 8.91345 13.44 8.66855 13.3C8.63916 13.28 8.60978 13.27 8.58039 13.25C8.5608 13.24 8.551 13.23 8.5412 13.22C8.36488 13.12 8.26692 13.05 8.26692 13.05C8.26692 13.05 8.73712 13.85 9.9812 14.23C9.68733 14.61 9.32488 15.06 9.32488 15.06C7.15998 14.99 6.33712 13.54 6.33712 13.54C6.33712 10.32 7.74773 7.71 7.74773 7.71C9.15835 6.63 10.5004 6.66 10.5004 6.66L10.5983 6.78C8.83508 7.3 8.02202 8.09 8.02202 8.09C8.02202 8.09 8.23753 7.97 8.59998 7.8C9.64814 7.33 10.4808 7.2 10.8237 7.17C10.8824 7.16 10.9314 7.15 10.9902 7.15C11.5877 7.07 12.2637 7.05 12.969 7.13C13.8996 7.24 14.8988 7.52 15.9175 8.09C15.9175 8.09 15.1437 7.34 13.4783 6.82L13.6155 6.66C13.6155 6.66 14.9575 6.63 16.3681 7.71C16.3681 7.71 17.7788 10.32 17.7788 13.54C17.7788 13.54 16.9461 14.99 14.7812 15.06Z" fill="#A9A9A9"/>
</svg>
