<svg width="21" height="19" viewBox="0 0 21 19" fill="none" xmlns="http://www.w3.org/2000/svg">
<path d="M12.5 5.5H11V10.5L15.28 13.04L16 11.83L12.5 9.75V5.5ZM12 0.5C9.61305 0.5 7.32387 1.44821 5.63604 3.13604C3.94821 4.82387 3 7.11305 3 9.5H0L3.96 13.53L8 9.5H5C5 7.64348 5.7375 5.86301 7.05025 4.55025C8.36301 3.2375 10.1435 2.5 12 2.5C13.8565 2.5 15.637 3.2375 16.9497 4.55025C18.2625 5.86301 19 7.64348 19 9.5C19 11.3565 18.2625 13.137 16.9497 14.4497C15.637 15.7625 13.8565 16.5 12 16.5C10.07 16.5 8.32 15.71 7.06 14.44L5.64 15.86C7.27 17.5 9.5 18.5 12 18.5C14.3869 18.5 16.6761 17.5518 18.364 15.864C20.0518 14.1761 21 11.8869 21 9.5C21 7.11305 20.0518 4.82387 18.364 3.13604C16.6761 1.44821 14.3869 0.5 12 0.5Z" fill="#A9A9A9"/>
</svg>
