<svg width="18" height="18" viewBox="0 0 18 18" fill="none" xmlns="http://www.w3.org/2000/svg">
<path d="M7.5 9C7.5 8.175 8.175 7.5 9 7.5C9.825 7.5 10.5 8.175 10.5 9C10.5 9.825 9.825 10.5 9 10.5C8.175 10.5 7.5 9.825 7.5 9ZM5.85 13.275L4.725 12.225L5.85 11.1C5.475 10.5 5.25 9.75 5.25 9C5.25 8.25 5.475 7.5 5.85 6.975L4.725 5.85L5.85 4.725L6.9 5.85C7.5 5.475 8.25 5.25 9 5.25C9.75 5.25 10.5 5.475 11.1 5.85L12.225 4.725L13.275 5.775L12.15 6.9C12.525 7.5 12.75 8.25 12.75 9C12.75 9.75 12.525 10.5 12.15 11.1L13.275 12.225L12.225 13.275L11.1 12.15C10.5 12.525 9.75 12.75 9 12.75C8.25 12.75 7.5 12.525 6.975 12.15L5.85 13.275ZM9 6.75C7.725 6.75 6.75 7.725 6.75 9C6.75 10.275 7.725 11.25 9 11.25C10.275 11.25 11.25 10.275 11.25 9C11.25 7.725 10.275 6.75 9 6.75ZM15 1.5C15.825 1.5 16.5 2.175 16.5 3V15C16.5 15.825 15.825 16.5 15 16.5H14.25V17.25H11.25V16.5H6.75V17.25H3.75V16.5H3C2.175 16.5 1.5 15.825 1.5 15V3C1.5 2.175 2.175 1.5 3 1.5H15ZM15 15V3H3V15H15Z" fill="white"/>
</svg>
