<svg width="24" height="24" viewBox="0 0 24 24" fill="none" xmlns="http://www.w3.org/2000/svg">
<path d="M13.5833 12.0737C13.5833 15.8321 10.5723 18.8791 6.85794 18.8791C3.14358 18.8791 0.132812 15.8331 0.132812 12.0737C0.132812 8.31436 3.14381 5.26855 6.85794 5.26855C10.5721 5.26855 13.5833 8.31528 13.5833 12.0737Z" fill="#A9A9A9"/>
<path d="M20.9617 12.073C20.9617 15.6111 19.4561 18.4791 17.599 18.4791C15.742 18.4791 14.2363 15.6102 14.2363 12.073C14.2363 8.53584 15.742 5.66699 17.599 5.66699C19.4561 5.66699 20.9617 8.53584 20.9617 12.073Z" fill="#A9A9A9"/>
<path d="M23.9787 12.0735C23.9787 15.2435 23.4492 17.813 22.796 17.813C22.1429 17.813 21.6133 15.2426 21.6133 12.0735C21.6133 8.90447 22.1429 6.33398 22.7963 6.33398C23.4496 6.33398 23.9787 8.90379 23.9787 12.0735Z" fill="#A9A9A9"/>
</svg>
