<svg width="24" height="25" viewBox="0 0 24 25" fill="none" xmlns="http://www.w3.org/2000/svg">
<path d="M0 5.5C0 5.22386 0.223858 5 0.5 5H23.5C23.7761 5 24 5.22386 24 5.5V7.16667C24 7.44281 23.7761 7.66667 23.5 7.66667H0.5C0.223857 7.66667 0 7.44281 0 7.16667V5.5ZM0 12.1667C0 11.8905 0.223858 11.6667 0.5 11.6667H23.5C23.7761 11.6667 24 11.8905 24 12.1667V13.8333C24 14.1095 23.7761 14.3333 23.5 14.3333H0.5C0.223857 14.3333 0 14.1095 0 13.8333V12.1667ZM0 18.8333C0 18.5572 0.223858 18.3333 0.5 18.3333H23.5C23.7761 18.3333 24 18.5572 24 18.8333V20.5C24 20.7761 23.7761 21 23.5 21H0.5C0.223857 21 0 20.7761 0 20.5V18.8333Z" fill="#5EB872"/>
</svg>
