<svg width="24" height="24" viewBox="0 0 24 24" fill="none" xmlns="http://www.w3.org/2000/svg">
<path fill-rule="evenodd" clip-rule="evenodd" d="M23.9978 12.0028C23.9978 18.627 18.6279 23.9969 12.0038 23.9969C5.37968 23.9969 0.00976562 18.627 0.00976562 12.0028C0.00976562 5.3787 5.37968 0.00878906 12.0038 0.00878906C18.6279 0.00878906 23.9978 5.3787 23.9978 12.0028ZM18.1872 10.3153C19.1561 10.2825 19.967 11.0368 20.0028 12.0027C20.0147 12.6765 19.6361 13.2966 19.0339 13.5978C19.0458 13.7737 19.0458 13.9496 19.0339 14.1255C19.0339 16.8146 15.9034 18.997 12.0426 18.997C8.1817 18.997 5.05126 16.8117 5.05126 14.1255C5.03934 13.9496 5.03934 13.7737 5.05126 13.5978C4.87536 13.5202 4.71735 13.4099 4.58021 13.2817C3.87363 12.6199 3.84083 11.5108 4.50269 10.8072C5.16456 10.1006 6.27363 10.0678 6.97723 10.7297C8.36058 9.79355 9.98543 9.28075 11.655 9.25392L12.5405 5.09194V5.08598C12.5852 4.88325 12.7849 4.75803 12.9847 4.80275L15.9243 5.39008C16.1121 5.06213 16.452 4.84151 16.8306 4.80275C17.4895 4.7312 18.0798 5.20822 18.1514 5.8671C18.2229 6.52598 17.7459 7.11629 17.087 7.18784C16.4282 7.25939 15.8378 6.78237 15.7663 6.12349L13.1993 5.58387L12.4212 9.32547C14.0699 9.36125 15.6739 9.87106 17.0393 10.8012C17.3494 10.5061 17.7578 10.3302 18.1872 10.3153ZM9.21027 12.0027C8.54841 12.0027 8.00878 12.5424 8.00878 13.2042C8.00878 13.8661 8.54543 14.3997 9.21027 14.4057C9.87213 14.4057 10.4118 13.8661 10.4118 13.2042C10.4118 12.5424 9.87213 12.0027 9.21027 12.0027ZM12.0128 17.4258C13.0801 17.4705 14.1236 17.1426 14.9762 16.5016V16.5493C15.1074 16.4211 15.1104 16.2065 14.9822 16.0753C14.854 15.9441 14.6393 15.9411 14.5082 16.0693C13.7777 16.591 12.8952 16.8474 12.0008 16.7997C11.1064 16.8415 10.2269 16.5732 9.50543 16.0455C9.38319 15.9471 9.21325 15.9471 9.094 16.0455C8.95685 16.1588 8.93599 16.3645 9.04928 16.5016C9.90195 17.1426 10.9454 17.4705 12.0128 17.4258ZM13.5601 13.246C13.5601 13.9078 14.0997 14.4474 14.7616 14.4474L14.7526 14.4922H14.8123C15.4741 14.4653 15.9899 13.9078 15.9631 13.246C15.9631 12.5841 15.4234 12.0445 14.7616 12.0445C14.0997 12.0445 13.5601 12.5841 13.5601 13.246Z" fill="#A9A9A9"/>
</svg>
