<svg width="16" height="16" viewBox="0 0 16 16" fill="none" xmlns="http://www.w3.org/2000/svg">
<path d="M10.3025 7.4375L9.6275 8.1275C9.0875 8.6675 8.75 9.125 8.75 10.25H7.25V9.875C7.25 9.0425 7.5875 8.2925 8.1275 7.7525L9.0575 6.8075C9.335 6.5375 9.5 6.1625 9.5 5.75C9.5 4.9175 8.825 4.25 8 4.25C7.60218 4.25 7.22065 4.40804 6.93934 4.68934C6.65804 4.97064 6.5 5.35218 6.5 5.75H5C5 4.95435 5.31607 4.19129 5.87868 3.62868C6.44129 3.06607 7.20435 2.75 8 2.75C8.79565 2.75 9.55871 3.06607 10.1213 3.62868C10.6839 4.19129 11 4.95435 11 5.75C11 6.41 10.73 7.0025 10.3025 7.4375ZM8.75 13.25H7.25V11.75H8.75V13.25ZM8 0.5C7.01509 0.5 6.03982 0.693993 5.12987 1.0709C4.21993 1.44781 3.39314 2.00026 2.6967 2.6967C1.29018 4.10322 0.5 6.01088 0.5 8C0.5 9.98912 1.29018 11.8968 2.6967 13.3033C3.39314 13.9997 4.21993 14.5522 5.12987 14.9291C6.03982 15.306 7.01509 15.5 8 15.5C9.98912 15.5 11.8968 14.7098 13.3033 13.3033C14.7098 11.8968 15.5 9.98912 15.5 8C15.5 3.8525 12.125 0.5 8 0.5Z" fill="#A9A9A9"/>
</svg>
