<svg width="24" height="24" viewBox="0 0 24 24" fill="none" xmlns="http://www.w3.org/2000/svg">
<circle cx="12" cy="12" r="12" fill="url(#paint0_linear)"/>
<path d="M7.96736 15.649C7.55327 15.649 7.21716 15.3043 7.21716 14.8796V7.6917C7.21716 7.26668 7.55327 6.92233 7.96736 6.92233C8.38145 6.92233 8.71755 7.26668 8.71755 7.6917V14.8796C8.71755 15.3043 8.38145 15.649 7.96736 15.649Z" fill="#62D066"/>
<path fill-rule="evenodd" clip-rule="evenodd" d="M7.96735 15.7689C7.48443 15.7689 7.09766 15.3678 7.09766 14.88V7.69213C7.09766 7.20394 7.48447 6.80326 7.96735 6.80326C8.45023 6.80326 8.83704 7.20394 8.83704 7.69213V14.88C8.83704 15.3678 8.45026 15.7689 7.96735 15.7689ZM7.21716 14.8796C7.21716 15.3043 7.55327 15.649 7.96736 15.649C8.38145 15.649 8.71755 15.3043 8.71755 14.8796V7.6917C8.71755 7.26668 8.38145 6.92233 7.96736 6.92233C7.55327 6.92233 7.21716 7.26668 7.21716 7.6917V14.8796Z" fill="#62D066"/>
<path d="M11.9682 18.109C11.5541 18.109 11.218 17.7643 11.218 17.3397V9.40631C11.218 8.98163 11.5541 8.63693 11.9682 8.63693C12.3822 8.63693 12.7183 8.98163 12.7183 9.40631V17.3397C12.7182 17.7643 12.3821 18.109 11.9682 18.109Z" fill="#62D066"/>
<path fill-rule="evenodd" clip-rule="evenodd" d="M12.8378 17.3397C12.8376 17.8275 12.4509 18.2285 11.9681 18.2285C11.4852 18.2285 11.0985 17.8275 11.0985 17.3397V9.40631C11.0985 8.91849 11.4852 8.51743 11.9681 8.51743C12.4511 8.51743 12.8378 8.91849 12.8378 9.40631V17.3397ZM11.218 17.3397C11.218 17.7643 11.5541 18.109 11.9682 18.109C12.3821 18.109 12.7182 17.7643 12.7183 17.3397V9.40631C12.7183 8.98163 12.3822 8.63693 11.9682 8.63693C11.5541 8.63693 11.218 8.98163 11.218 9.40631V17.3397Z" fill="#62D066"/>
<path d="M15.9688 15.7825C15.5544 15.7825 15.2186 15.4378 15.2186 15.0131V7.69161C15.2186 7.26659 15.5544 6.92223 15.9688 6.92223C16.3829 6.92223 16.719 7.26659 16.719 7.69161V15.0131C16.719 15.4378 16.3829 15.7825 15.9688 15.7825Z" fill="#62D066"/>
<path fill-rule="evenodd" clip-rule="evenodd" d="M15.9688 15.902C15.4855 15.902 15.0991 15.5009 15.0991 15.0131V7.69161C15.0991 7.20345 15.4855 6.80273 15.9688 6.80273C16.4517 6.80273 16.8385 7.20341 16.8385 7.69161V15.0131C16.8385 15.501 16.4517 15.902 15.9688 15.902ZM15.2186 15.0131C15.2186 15.4378 15.5544 15.7825 15.9688 15.7825C16.3829 15.7825 16.719 15.4378 16.719 15.0131V7.69161C16.719 7.26659 16.3829 6.92223 15.9688 6.92223C15.5544 6.92223 15.2186 7.26659 15.2186 7.69161V15.0131Z" fill="#62D066"/>
<defs>
<linearGradient id="paint0_linear" x1="12" y1="0" x2="12" y2="24" gradientUnits="userSpaceOnUse">
<stop stop-color="#242424"/>
<stop offset="1" stop-color="#1A1A1A"/>
</linearGradient>
</defs>
</svg>
