<svg width="120" height="32" viewBox="0 0 120 32" fill="none" xmlns="http://www.w3.org/2000/svg">
<g clip-path="url(#clip0)">
<path fill-rule="evenodd" clip-rule="evenodd" d="M2.76462 24.7992C1.4399 24.7992 0.378906 23.7144 0.378906 22.3949V2.95219C0.378906 1.63166 1.44 0.547852 2.76462 0.547852C4.08924 0.547852 5.15033 1.63166 5.15033 2.95219V22.3949C5.15033 23.7144 4.08933 24.7992 2.76462 24.7992Z" fill="#62D066"/>
<path fill-rule="evenodd" clip-rule="evenodd" d="M16.1249 29.0482C16.1244 30.3675 15.0636 31.4524 13.7392 31.4524C12.4145 31.4524 11.3535 30.3675 11.3535 29.048V7.5889C11.3535 6.26941 12.4145 5.18457 13.7392 5.18457C15.0639 5.18457 16.1249 6.26941 16.1249 7.5889V29.0482Z" fill="#62D066"/>
<path fill-rule="evenodd" clip-rule="evenodd" d="M24.7138 25.1597C23.3881 25.1597 22.3281 24.0748 22.3281 22.7554V2.95121C22.3281 1.63078 23.3882 0.546875 24.7138 0.546875C26.0385 0.546875 27.0996 1.63068 27.0996 2.95121V22.7554C27.0996 24.0749 26.0386 25.1597 24.7138 25.1597Z" fill="#62D066"/>
</g>
<path d="M47.6546 23.9003C46.5865 23.9003 45.6145 23.7002 44.7386 23.2999C43.8628 22.8786 43.1685 22.2467 42.6558 21.4041C42.1431 20.5404 41.8867 19.4451 41.8867 18.118V7.40651H45.5718V18.6867C45.5718 19.108 45.6679 19.4872 45.8602 19.8242C46.0524 20.1402 46.2981 20.3825 46.5972 20.551C46.9176 20.7195 47.2701 20.8037 47.6546 20.8037C48.0178 20.8037 48.3596 20.7195 48.6801 20.551C49.0005 20.3825 49.2568 20.1402 49.4491 19.8242C49.6414 19.4872 49.7375 19.108 49.7375 18.6867V12.7464C49.7375 11.5036 49.9725 10.4609 50.4425 9.61832C50.9338 8.75466 51.6067 8.11218 52.4612 7.69089C53.3371 7.24852 54.3305 7.02734 55.4413 7.02734C56.5736 7.02734 57.5669 7.24852 58.4214 7.69089C59.2759 8.11218 59.9489 8.75466 60.4402 9.61832C60.9316 10.4609 61.1772 11.5036 61.1772 12.7464V18.6867C61.1772 19.108 61.2734 19.4872 61.4656 19.8242C61.6579 20.1402 61.9142 20.3825 62.2347 20.551C62.5551 20.7195 62.9076 20.8037 63.2921 20.8037C63.6553 20.8037 63.9864 20.7195 64.2855 20.551C64.6059 20.3825 64.8623 20.1402 65.0545 19.8242C65.2468 19.4872 65.3429 19.108 65.3429 18.6867V7.40651H69.028V18.118C69.028 19.4451 68.7717 20.5404 68.2589 21.4041C67.7462 22.2467 67.052 22.8786 66.1761 23.2999C65.3002 23.7002 64.3389 23.9003 63.2921 23.9003C62.2454 23.9003 61.284 23.7002 60.4082 23.2999C59.5323 22.8786 58.8273 22.2467 58.2933 21.4041C57.7592 20.5404 57.4922 19.4451 57.4922 18.118V12.2409C57.4922 11.7775 57.396 11.3983 57.2038 11.1034C57.0329 10.7874 56.7872 10.5452 56.4668 10.3767C56.1677 10.2081 55.8259 10.1239 55.4413 10.1239C55.0995 10.1239 54.7684 10.2081 54.448 10.3767C54.1275 10.5452 53.8712 10.7874 53.6789 11.1034C53.4867 11.3983 53.3905 11.7775 53.3905 12.2409V18.118C53.3905 19.4451 53.1235 20.5404 52.5894 21.4041C52.0767 22.2467 51.3824 22.8786 50.5066 23.2999C49.6521 23.7002 48.7014 23.9003 47.6546 23.9003Z" fill="white"/>
<path d="M79.4536 23.9003C77.8941 23.9003 76.5483 23.5211 75.416 22.7628C74.2838 22.0044 73.4079 20.9933 72.7884 19.7294C72.1903 18.4445 71.8912 17.0331 71.8912 15.4954C71.8912 13.8945 72.233 12.4621 72.9166 11.1982C73.6216 9.91323 74.6149 8.90211 75.8967 8.16485C77.1998 7.40651 78.7486 7.02734 80.5431 7.02734C82.3162 7.02734 83.8223 7.40651 85.0613 8.16485C86.3217 8.90211 87.283 9.91323 87.9452 11.1982C88.6289 12.4621 88.9707 13.8734 88.9707 15.4322V23.5211H85.2856V20.5194H85.2215C84.9011 21.1092 84.4845 21.6674 83.9718 22.194C83.4591 22.6996 82.8289 23.1103 82.0812 23.4263C81.3335 23.7423 80.4576 23.9003 79.4536 23.9003ZM80.4469 20.8037C81.4083 20.8037 82.2414 20.572 82.9464 20.1086C83.6727 19.6241 84.2388 18.9816 84.6447 18.1812C85.0506 17.3596 85.2429 16.4433 85.2215 15.4322C85.2215 14.4211 85.0292 13.5258 84.6447 12.7464C84.2602 11.946 83.7154 11.314 83.0105 10.8506C82.3055 10.3661 81.4617 10.1239 80.479 10.1239C79.4536 10.1239 78.5777 10.3661 77.8514 10.8506C77.125 11.314 76.5696 11.946 76.1851 12.7464C75.8006 13.5469 75.6083 14.4527 75.6083 15.4638C75.6083 16.4539 75.8006 17.3596 76.1851 18.1812C76.5696 18.9816 77.1144 19.6241 77.8193 20.1086C78.5457 20.572 79.4215 20.8037 80.4469 20.8037Z" fill="white"/>
<path d="M92.6109 23.5211V11.9881C92.6109 10.5557 93.0168 9.43927 93.8286 8.6388C94.6617 7.81728 95.8046 7.40651 97.2573 7.40651H101.199V10.503H97.9302C97.4175 10.503 97.0116 10.6505 96.7125 10.9454C96.4348 11.2403 96.296 11.6405 96.296 12.1461V23.5211H92.6109Z" fill="white"/>
<path d="M111.477 7.02734C109.811 7.02734 108.337 7.37491 107.055 8.07005C105.773 8.76519 104.769 9.76577 104.043 11.0718C103.338 12.3567 102.985 13.8839 102.985 15.6534V30.4725H106.67V21.0881H106.702C107.044 21.6569 107.493 22.1519 108.048 22.5732C108.604 22.9945 109.223 23.321 109.907 23.5527C110.59 23.7844 111.317 23.9003 112.086 23.9003C113.645 23.9003 115.012 23.5632 116.187 22.8892C117.384 22.194 118.313 21.2356 118.975 20.0138C119.659 18.7921 120.001 17.3596 120.001 15.7166C120.001 14.4316 119.798 13.2625 119.392 12.2093C119.007 11.135 118.441 10.2081 117.693 9.42874C116.967 8.64934 116.08 8.05952 115.034 7.65929C113.987 7.23799 112.801 7.02734 111.477 7.02734ZM111.477 10.1239C112.417 10.1239 113.25 10.3556 113.976 10.819C114.703 11.2614 115.269 11.8828 115.675 12.6833C116.08 13.4837 116.283 14.4106 116.283 15.4638C116.283 16.496 116.08 17.4123 115.675 18.2128C115.269 19.0132 114.703 19.6452 113.976 20.1086C113.271 20.572 112.449 20.8037 111.509 20.8037C110.569 20.8037 109.736 20.5826 109.009 20.1402C108.283 19.6768 107.717 19.0448 107.311 18.2444C106.905 17.4439 106.702 16.5171 106.702 15.4638C106.702 14.4106 106.905 13.4837 107.311 12.6833C107.717 11.8828 108.283 11.2614 109.009 10.819C109.736 10.3556 110.558 10.1239 111.477 10.1239Z" fill="white"/>
<defs>
<clipPath id="clip0">
<rect width="27.5354" height="32" fill="white"/>
</clipPath>
</defs>
</svg>
