<svg width="198" height="57" viewBox="0 0 198 57" fill="none" xmlns="http://www.w3.org/2000/svg">
<path d="M1.95108 29.7787C2.42245 27.5397 4.60253 25.3596 6.78261 25.831C6.72369 26.4791 6.488 26.9505 6.37016 27.1862C5.95771 27.9522 6.488 28.1878 7.07721 27.9522C7.6075 27.7754 8.84485 27.3629 8.84485 26.3613C8.78592 25.7721 8.25564 25.065 7.48966 24.6526C6.72369 24.2401 5.95771 24.1223 5.30958 24.1223C4.01332 24.1223 2.95274 24.6526 2.12784 25.3007C0.772658 26.4202 0.065605 28.0111 0.00668398 29.6609C-0.170079 33.4907 3.18842 35.7887 6.60585 35.7887C13.7942 35.3762 17.683 30.7215 18.6257 28.9538C19.0382 28.1878 18.6257 27.1862 18.2722 27.4219C14.737 30.5447 10.4946 33.6675 5.60419 34.021C2.95274 34.021 1.42079 32.3123 1.95108 29.7787Z" fill="#252525"/>
<path d="M34.5984 28.0111C36.0125 27.5397 36.425 26.7737 34.7163 26.8327C34.186 26.8327 31.8881 27.0683 29.1188 27.0683C27.7636 27.0683 26.2316 27.0094 24.7586 26.8327C23.8748 25.7721 22.5785 25.0061 20.9877 24.7704C19.8092 24.7115 19.3968 25.3596 19.1611 26.1845C19.0433 26.1845 18.9843 26.2435 18.8665 26.2435C17.5113 26.7148 15.9794 29.543 16.3918 32.0177C16.6864 33.6675 18.1594 35.4941 20.3395 35.6119C23.0499 35.7887 25.4657 34.3156 25.9959 31.3696C26.1727 30.4858 26.1138 29.602 25.8781 28.836C29.4723 29.0127 33.3022 28.4825 34.5984 28.0111ZM20.0449 27.5397L20.1628 27.4219C20.9877 27.9522 22.1072 28.3057 23.4623 28.5414C24.4051 30.6625 23.1088 34.021 20.5163 34.1389C19.3968 34.1978 18.7487 33.5497 18.454 31.841C18.1594 30.1912 19.2789 28.1289 20.0449 27.5397Z" fill="#252525"/>
<path d="M35.5407 32.7837C35.7175 33.4907 37.2494 34.6692 37.7208 34.2567C40.0187 32.2534 41.6685 29.1306 44.6735 27.1862C45.2038 29.4841 45.5573 30.8393 46.1465 32.1356C46.5 32.7837 47.6195 33.3729 48.0909 33.1372C49.6818 32.0766 51.1548 30.8982 53.8062 28.7181C53.983 29.2484 54.2776 29.8966 54.6901 30.4858C55.2203 31.1928 55.8096 31.8999 56.6934 32.4891C57.9896 33.314 59.4037 33.6675 60.6411 33.6675C63.9996 33.6675 67.8295 30.7804 68.7133 29.1895C69.4203 27.8932 68.6544 27.4219 68.4776 27.7165C67.6527 29.1306 61.2303 32.0177 59.3448 32.0177C58.5199 32.0177 57.8129 31.7231 57.1647 31.3107C55.9863 30.309 55.6917 28.1878 55.1025 27.0094C54.6901 26.3613 53.5706 25.7721 53.1581 26.0667L47.4428 30.7215C46.9125 28.6592 46.8535 27.4219 46.2054 25.8899C45.7341 25.2418 44.7324 24.6526 44.261 24.8883C41.7274 26.1256 39.7241 28.4825 37.6619 30.7215C37.6029 28.7771 37.8386 27.7165 37.7797 26.1845C37.9565 25.4186 36.0121 24.1223 35.8353 25.124C35.5996 26.597 35.4229 28.3057 35.4229 30.1912C35.4229 31.0161 35.4818 31.8999 35.5407 32.7837Z" fill="#252525"/>
<path d="M66.6096 55.5272C66.7274 56.6467 68.6718 57.2359 68.7308 56.2343C68.3183 53.2882 68.3183 49.9297 68.2005 46.3945C68.3772 40.2667 68.4951 36.319 69.1432 33.6086L69.6146 33.9032C70.6752 34.5513 73.0909 35.1405 75.0353 34.6102H75.3299C79.8079 34.787 84.3448 32.4302 87.3498 29.3663C87.939 28.7181 88.6461 26.6559 87.939 27.1862C85.8768 29.0127 80.9864 31.8999 77.2743 32.6659C78.0992 31.6642 78.9241 30.2501 79.042 28.8949C79.4544 25.5953 75.7424 24.358 73.3855 25.0061C71.6768 25.4775 69.8503 26.7148 68.3183 29.0717C68.4951 25.065 68.6129 22.2957 68.7308 20.8227C68.7897 20.4103 68.3772 19.88 67.788 19.5854C67.2577 19.2908 66.7274 19.2908 66.6685 19.7032C66.1972 23.0028 66.0793 33.0783 66.0793 46.4534C66.2561 49.6351 66.3739 53.0526 66.6096 55.5272ZM73.6801 32.8426C72.7374 32.7248 69.9092 32.6069 69.2611 32.2534V32.0766C69.6146 30.4268 73.798 25.1829 76.4494 26.7148C78.3349 27.8343 75.7424 32.2534 73.6801 32.8426Z" fill="#252525"/>
<path d="M103.359 28.0111C104.773 27.5397 105.185 26.7737 103.477 26.8327C102.946 26.8327 100.648 27.0683 97.8792 27.0683C96.524 27.0683 94.9921 27.0094 93.5191 26.8327C92.6352 25.7721 91.339 25.0061 89.7481 24.7704C88.5697 24.7115 88.1572 25.3596 87.9215 26.1845C87.8037 26.1845 87.7448 26.2435 87.6269 26.2435C86.2718 26.7148 84.7398 29.543 85.1523 32.0177C85.4469 33.6675 86.9199 35.4941 89.1 35.6119C91.8103 35.7887 94.2261 34.3156 94.7564 31.3696C94.9332 30.4858 94.8742 29.602 94.6385 28.836C98.2327 29.0127 102.063 28.4825 103.359 28.0111ZM88.8054 27.5397L88.9232 27.4219C89.7481 27.9522 90.8676 28.3057 92.2228 28.5414C93.1655 30.6625 91.8693 34.021 89.2767 34.1389C88.1572 34.1978 87.5091 33.5497 87.2145 31.841C86.9199 30.1912 88.0394 28.1289 88.8054 27.5397Z" fill="#252525"/>
<path d="M103.475 35.2584C104.359 35.6119 105.773 35.7887 107.246 35.7887C108.778 35.7887 110.31 35.6119 111.37 35.3173C112.902 34.9049 114.022 33.2551 112.725 32.1356C111.547 31.1928 109.779 30.309 107.54 29.0717C106.362 28.3646 105.007 27.7754 105.36 26.9505C106.008 25.4186 111.37 24.4169 113.55 23.6509C114.022 23.0617 112.843 21.9422 111.901 22.0601C108.896 22.4725 102.473 24.358 102.945 27.4808C103.18 29.2484 104.83 29.8376 106.362 30.7215C107.54 31.3696 109.779 32.4891 111.252 33.2551C109.721 33.6086 107.364 33.9032 105.478 33.9032C104.712 33.9032 104.064 33.8443 103.534 33.7264C102.238 33.4318 102.768 34.9049 103.475 35.2584Z" fill="#252525"/>
<path d="M119.011 34.08C119.659 34.4924 120.366 34.6692 121.132 34.6692C124.255 34.6692 128.143 31.6642 129.793 30.1912C130.559 32.3123 132.032 33.4318 133.977 33.9032C136.451 34.4924 140.517 32.6069 141.99 31.1339C145.231 27.8932 144.347 26.4202 143.345 27.4219C141.224 29.7787 136.157 32.7837 133.152 32.1945C132.091 31.8999 131.797 30.7215 131.855 29.7198C131.973 28.6003 132.504 27.5397 132.798 26.6559C133.211 25.9488 131.207 24.6526 130.854 25.3007L129.852 26.6559H129.793C128.32 26.0078 126.67 25.6542 125.021 25.6542C122.958 25.6542 120.955 26.1845 119.364 27.2451C117.891 28.2468 117.243 29.543 117.243 30.8393C117.243 32.0766 117.832 33.1961 119.011 34.08ZM120.071 32.7837C119.187 32.7248 118.834 32.0766 119.011 31.3696C119.659 28.6592 123.548 27.5397 126.494 27.5397C127.377 27.5397 128.202 27.6576 128.792 27.8343C126.729 30.0144 122.899 32.4302 120.071 32.7837Z" fill="#252525"/>
<path d="M144.429 36.7314C145.018 37.026 145.313 36.8492 145.371 36.8492C145.489 36.7903 145.548 36.6725 145.607 36.6725C145.666 36.4957 145.784 36.2011 145.725 35.7887L146.078 34.1389L146.255 33.5497L146.373 33.6086C147.669 34.4924 151.087 34.6692 152.03 34.4924L152.265 34.4335H152.737C157.922 34.3746 162.105 32.1356 164.285 29.1895C164.815 28.4235 165.169 26.597 164.58 27.1862C162.517 29.0127 157.804 31.6642 154.917 32.1356L155.329 31.1928C155.565 30.4858 155.742 29.6609 155.742 28.7771C155.742 27.4219 155.329 26.0078 154.092 24.8883L153.797 24.6526C153.326 24.1812 152.619 23.8866 152.088 23.8277C149.496 23.3563 145.725 28.2468 144.723 30.6625C144.429 27.6576 144.37 23.8866 144.37 20.0567C144.37 12.3381 144.605 4.56049 145.313 2.49825C145.489 2.14473 145.136 1.55552 144.664 1.20199C144.075 0.848464 143.486 0.848463 143.309 1.14307C142.543 3.26423 142.249 10.2169 142.249 17.2285V19.114C142.249 22.9439 142.366 26.7148 142.484 29.7198L142.956 33.4907C143.132 34.4335 143.25 35.1995 143.486 35.6119C143.486 35.6708 143.486 35.7887 143.663 35.9654C143.663 36.0244 144.016 36.4368 144.429 36.7314ZM146.727 32.3712L146.609 32.3123C149.201 28.5414 150.733 26.1845 152.737 25.5364H152.854L153.031 25.7721C153.385 26.1256 153.561 26.7148 153.561 27.5397C153.561 30.309 151.205 32.7248 148.494 32.7248C147.905 32.7248 147.316 32.6069 146.727 32.3712Z" fill="#252525"/>
<path d="M169.894 38.7936C173.606 38.7936 178.319 32.4302 179.38 29.4841C179.616 28.7771 179.498 27.304 178.909 28.1289C178.025 29.2484 170.895 38.8526 167.831 36.9671C166.535 36.0833 166.064 31.8999 166.064 26.6559C166.064 16.4625 167.773 2.32149 168.126 1.20199C168.126 0.907384 167.655 0.436017 167.065 0.141412C166.476 -0.0942732 166.123 -0.0353537 166.064 0.318172C165.298 2.79286 163.648 15.4609 163.648 25.2418C163.648 30.1322 164.06 34.3156 165.18 36.0833C166.358 37.7331 168.008 38.7936 169.894 38.7936Z" fill="#252525"/>
<path d="M187.726 35.8476C191.792 35.6119 195.563 32.7248 197.212 29.3074C198.037 27.6576 198.273 26.3024 196.918 27.7165C194.443 30.309 190.319 34.4335 184.78 34.4335C182.718 34.4335 180.656 32.548 180.479 31.4285C182.541 31.4285 185.075 30.0144 185.841 28.1289C186.489 26.4202 184.78 24.6526 182.953 24.6526C180.066 24.7704 178.299 27.4219 178.299 30.0144C178.299 30.6036 178.417 31.1928 178.593 31.7231C179.772 35.3762 184.25 36.0244 187.726 35.8476ZM183.896 26.6559C184.544 27.304 182.895 28.8949 180.42 30.0144C180.361 28.5414 182.659 25.4186 183.896 26.6559Z" fill="#252525"/>
</svg>
