<svg width="24" height="24" viewBox="0 0 24 24" fill="none" xmlns="http://www.w3.org/2000/svg">
<path d="M12 23.5669C18.4893 23.5669 23.75 18.3605 23.75 11.9381C23.75 5.51562 18.4893 0.309204 12 0.309204C5.51065 0.309204 0.25 5.51562 0.25 11.9381C0.25 18.3605 5.51065 23.5669 12 23.5669Z" fill="url(#paint0_linear)"/>
<path d="M18.7176 10.0194H17.3233C16.5556 7.91068 14.4915 6.46484 11.7694 6.46484H7.29269V10.0194H5.73779V11.2947H7.29269V12.632H5.73779V13.9073H7.29269V17.4192H11.7694C14.4602 17.4192 16.5086 15.985 17.2959 13.9073H18.7176V12.632H17.6092C17.6366 12.4072 17.6523 12.1746 17.6523 11.942V11.911C17.6523 11.7017 17.6405 11.4963 17.6209 11.2947H18.7215V10.0194H18.7176ZM8.54604 7.60059H11.7694C13.7669 7.60059 15.2514 8.57353 15.9368 10.0155H8.54604V7.60059ZM11.7694 16.2718H8.54604V13.9034H15.9289C15.2396 15.3222 13.7591 16.2718 11.7694 16.2718ZM16.3559 11.9692C16.3559 12.194 16.3402 12.4149 16.3089 12.6281H8.54604V11.2908H16.3128C16.3402 11.5001 16.3559 11.7172 16.3559 11.9382V11.9692Z" fill="white"/>
<defs>
<linearGradient id="paint0_linear" x1="12" y1="-2.98563" x2="12" y2="26.009" gradientUnits="userSpaceOnUse">
<stop stop-color="#F9A606"/>
<stop offset="1" stop-color="#FBCC5F"/>
</linearGradient>
</defs>
</svg>
