<svg width="14" height="19" viewBox="0 0 14 19" fill="none" xmlns="http://www.w3.org/2000/svg">
<path d="M7.08958 0.666504C3.36454 0.681461 0.348459 3.69641 0.333496 7.42005C0.333496 8.16577 0.453911 8.90651 0.689755 9.61377C0.865746 10.0953 1.38802 10.3545 1.87823 10.2057C2.35206 10.024 2.60358 9.50622 2.45252 9.02189C2.2523 8.47061 2.16324 7.88586 2.1896 7.30039C2.27083 4.61094 4.5174 2.49627 7.20786 2.57747C9.89833 2.65866 12.0138 4.90438 11.9326 7.59384C11.8563 10.1116 9.87267 12.1565 7.35678 12.3096C7.35678 12.3096 6.40842 12.3673 5.93673 12.425C5.76288 12.4499 5.59045 12.4841 5.42016 12.5276C5.39593 12.5525 5.35674 12.5525 5.3318 12.5283L5.33109 12.5276C5.31399 12.5055 5.31399 12.4742 5.33109 12.4521L5.47787 11.6515L6.36852 7.64725C6.47539 7.14726 6.1569 6.65509 5.65671 6.54825C5.15652 6.44142 4.66418 6.75979 4.5573 7.25979C4.5573 7.25979 2.43898 17.061 2.43898 17.1501C2.31786 17.6266 2.60571 18.1109 3.08239 18.232C3.08737 18.2334 3.09307 18.2348 3.09806 18.2355H3.14723C3.62319 18.3588 4.10912 18.0724 4.23168 17.5967C4.23381 17.5888 4.23595 17.581 4.23738 17.5724C4.23595 17.5575 4.23595 17.5425 4.23738 17.5283C4.26374 17.4129 4.53093 16.1088 4.53093 16.1088C4.73329 15.1244 5.52703 14.3702 6.52028 14.2177C6.72477 14.1864 7.58407 14.1287 7.58407 14.1287C11.2949 13.7591 14.0031 10.4521 13.6326 6.7427C13.2949 3.35952 10.4911 0.754823 7.08958 0.666504Z" fill="#1E1E1E"/>
</svg>
