<svg width="36" height="36" viewBox="0 0 36 36" fill="none" xmlns="http://www.w3.org/2000/svg">
<path d="M0.0410156 18.0001C0.0410156 27.9187 8.08161 35.9593 18.0002 35.9593C27.9188 35.9593 35.9594 27.9187 35.9594 18.0001C35.9594 8.08149 27.9188 0.0408936 18.0002 0.0408936C8.08161 0.0408936 0.0410156 8.08149 0.0410156 18.0001Z" fill="black"/>
<path d="M28.5972 11.2833C28.2361 10.9986 27.8056 10.6097 27.0208 10.5125C26.2847 10.4152 25.5347 10.9083 25.0278 11.2347C24.5208 11.5611 23.5625 12.5194 23.1667 12.8111C22.7708 13.1028 21.7569 13.3736 20.125 14.3528C18.8078 15.1431 14.3826 17.9737 12.7246 19.0362C12.5352 19.1576 12.6209 19.4497 12.8459 19.4525V19.4525C13.0823 19.4554 13.1571 19.7728 12.9469 19.881L6.71055 23.0924C6.6129 23.1427 6.64866 23.2903 6.7585 23.2903V23.2903C6.85881 23.2903 6.90172 23.4177 6.82185 23.4784L6.43653 23.7711C6.25903 23.906 6.32037 24.1628 6.54327 24.1651C6.85179 24.1683 7.25046 24.1198 7.62664 23.9168C7.67501 23.8907 7.73611 23.9244 7.73611 23.9794V23.9794C7.73611 24.0286 7.78446 24.063 7.83035 24.0452C8.73967 23.6921 15.9673 20.9261 18.0284 21.4048C18.1291 21.4282 18.1187 21.5493 18.0195 21.5784V21.5784C17.8918 21.6159 17.9176 21.8436 18.0504 21.8521C18.3412 21.8707 18.6441 21.8905 18.8325 21.9029C18.942 21.9101 19.0289 21.9947 19.0503 22.1024C19.1061 22.383 19.212 22.6518 19.3634 22.8957C19.5483 23.1933 19.7964 23.4466 20.0903 23.6375C20.6323 23.9939 20.8905 24.265 21.0135 24.4401C21.1028 24.5673 21.1156 24.6687 20.9791 24.743V24.743C20.7645 24.8596 20.8345 25.0909 21.074 25.0433C21.359 24.9868 21.7351 24.9326 22.0972 24.9431C22.2455 24.9487 22.3934 24.96 22.5405 24.9771C23.1533 25.0481 23.2889 24.837 22.6944 24.6722V24.6722C21.9931 24.4778 21.2986 23.7139 20.9583 23.2972C20.7499 23.032 20.6141 22.7171 20.5641 22.3835C20.5142 22.0499 20.5519 21.709 20.6736 21.3944C20.9167 20.7625 21.7639 20.4153 23.5139 19.5125C25.5764 18.443 26.0486 17.6514 26.3403 17.0333C26.6319 16.4153 27.0625 15.1861 27.3056 14.6097C27.6111 13.8666 27.9861 13.4708 28.2986 13.2347C28.3042 13.2305 28.3101 13.2262 28.3163 13.2218C28.9967 12.7437 29.2479 11.8012 28.5972 11.2833V11.2833Z" fill="white"/>
</svg>
