<svg width="32" height="32" viewBox="0 0 32 32" fill="none" xmlns="http://www.w3.org/2000/svg">
<path d="M16.0002 31.4224C24.6526 31.4224 31.6668 24.4805 31.6668 15.9173C31.6668 7.354 24.6526 0.412109 16.0002 0.412109C7.3477 0.412109 0.333496 7.354 0.333496 15.9173C0.333496 24.4805 7.3477 31.4224 16.0002 31.4224Z" fill="#F9FAFB"/>
<path d="M16.0002 31.4224C24.6526 31.4224 31.6668 24.4805 31.6668 15.9173C31.6668 7.35399 24.6526 0.412109 16.0002 0.412109C7.3477 0.412109 0.333496 7.35399 0.333496 15.9173C0.333496 24.4805 7.3477 31.4224 16.0002 31.4224Z" fill="url(#paint0_linear)"/>
<path d="M24.9952 13.3803H23.2769C22.3309 10.7817 19.7873 9 16.4329 9H10.9161V13.3803H9V14.9519H10.9161V16.5999H9V18.1714H10.9161V22.4992H16.4329C19.7487 22.4992 22.273 20.7318 23.2431 18.1714H24.9952V16.5999H23.6292C23.663 16.3228 23.6824 16.0362 23.6824 15.7496V15.7114C23.6824 15.4534 23.6678 15.2003 23.6437 14.9519H25V13.3803H24.9952ZM12.4606 10.3996H16.4329C18.8944 10.3996 20.7237 11.5986 21.5683 13.3755H12.4606V10.3996ZM16.4329 21.0853H12.4606V18.1667H21.5587C20.7092 19.915 18.8848 21.0853 16.4329 21.0853ZM22.0848 15.783C22.0848 16.0601 22.0654 16.3324 22.0268 16.5951H12.4606V14.9471H22.0317C22.0654 15.2051 22.0848 15.4725 22.0848 15.7448V15.783Z" fill="white"/>
<defs>
<linearGradient id="paint0_linear" x1="16.0002" y1="-3.981" x2="16.0002" y2="34.6785" gradientUnits="userSpaceOnUse">
<stop stop-color="#E6007A"/>
<stop offset="1"/>
</linearGradient>
</defs>
</svg>
