<svg width="32" height="32" viewBox="0 0 32 32" fill="none" xmlns="http://www.w3.org/2000/svg">
<path d="M16.0725 31.6668C19.1392 31.6668 22.1369 30.748 24.6867 29.0265C27.2365 27.305 29.2239 24.8583 30.3974 21.9955C31.571 19.1328 31.878 15.9828 31.2798 12.9438C30.6815 9.90473 29.2048 7.1132 27.0363 4.92216C24.8679 2.73114 22.1052 1.23904 19.0975 0.634533C16.0897 0.0300326 12.9722 0.340283 10.139 1.52606C7.30579 2.71183 4.88421 4.71986 3.18047 7.29623C1.47675 9.8726 0.567383 12.9016 0.567383 16.0002C0.567383 20.1552 2.20096 24.1401 5.10874 27.0782C8.01652 30.0162 11.9603 31.6668 16.0725 31.6668Z" fill="#22A079"/>
</svg>
