<svg width="32" height="32" viewBox="0 0 32 32" fill="none" xmlns="http://www.w3.org/2000/svg">
<path d="M16.0002 31.6668C19.0987 31.6668 22.1277 30.748 24.7041 29.0265C27.2805 27.3051 29.2885 24.8583 30.4743 21.9955C31.66 19.1328 31.9703 15.9828 31.3658 12.9438C30.7613 9.90473 29.2692 7.1132 27.0782 4.92216C24.8871 2.73114 22.0956 1.23904 19.0566 0.634533C16.0175 0.0300326 12.8675 0.340283 10.0048 1.52606C7.14206 2.71183 4.6953 4.71986 2.97381 7.29623C1.25233 9.8726 0.333496 12.9016 0.333496 16.0002C0.333496 20.1552 1.98409 24.1401 4.92216 27.0782C7.86023 30.0162 11.8451 31.6668 16.0002 31.6668Z" fill="#2775C9"/>
</svg>
