<svg width="24" height="24" viewBox="0 0 24 24" fill="none" xmlns="http://www.w3.org/2000/svg">
<path d="M10.227 10.3906C9.6686 10.3906 9.22778 10.8906 9.22778 11.5006C9.22778 12.1106 9.6784 12.6106 10.227 12.6106C10.7853 12.6106 11.2262 12.1106 11.2262 11.5006C11.2359 10.8906 10.7853 10.3906 10.227 10.3906ZM13.8025 10.3906C13.2441 10.3906 12.8033 10.8906 12.8033 11.5006C12.8033 12.1106 13.2539 12.6106 13.8025 12.6106C14.3608 12.6106 14.8017 12.1106 14.8017 11.5006C14.8017 10.8906 14.3608 10.3906 13.8025 10.3906Z" fill="#252525" fill-opacity="0.4"/>
<path d="M18.5632 2H5.43663C4.32969 2 3.42847 2.92 3.42847 4.06V17.58C3.42847 18.72 4.32969 19.64 5.43663 19.64H16.5452L16.026 17.79L17.2799 18.98L18.4652 20.1L20.5713 22V4.06C20.5713 2.92 19.6701 2 18.5632 2ZM14.7819 15.06C14.7819 15.06 14.4293 14.63 14.1354 14.25C15.4187 13.88 15.9085 13.06 15.9085 13.06C15.5068 13.33 15.1248 13.52 14.7819 13.65C14.2921 13.86 13.8219 14 13.3615 14.08C12.4211 14.26 11.5591 14.21 10.8244 14.07C10.266 13.96 9.78602 13.8 9.38439 13.64C9.15908 13.55 8.91418 13.44 8.66928 13.3C8.6399 13.28 8.61051 13.27 8.58112 13.25C8.56153 13.24 8.55173 13.23 8.54194 13.22C8.36561 13.12 8.26765 13.05 8.26765 13.05C8.26765 13.05 8.73785 13.85 9.98194 14.23C9.68806 14.61 9.32561 15.06 9.32561 15.06C7.16071 14.99 6.33785 13.54 6.33785 13.54C6.33785 10.32 7.74847 7.71 7.74847 7.71C9.15908 6.63 10.5011 6.66 10.5011 6.66L10.5991 6.78C8.83581 7.3 8.02275 8.09 8.02275 8.09C8.02275 8.09 8.23826 7.97 8.60071 7.8C9.64888 7.33 10.4815 7.2 10.8244 7.17C10.8832 7.16 10.9321 7.15 10.9909 7.15C11.5885 7.07 12.2644 7.05 12.9697 7.13C13.9003 7.24 14.8995 7.52 15.9183 8.09C15.9183 8.09 15.1444 7.34 13.4791 6.82L13.6162 6.66C13.6162 6.66 14.9583 6.63 16.3689 7.71C16.3689 7.71 17.7795 10.32 17.7795 13.54C17.7795 13.54 16.9468 14.99 14.7819 15.06Z" fill="#252525" fill-opacity="0.4"/>
</svg>
