<svg width="24" height="14" viewBox="0 0 24 14" fill="none" xmlns="http://www.w3.org/2000/svg">
<path d="M13.5831 7.0747C13.5831 10.8331 10.5721 13.88 6.8577 13.88C3.14334 13.88 0.132568 10.834 0.132568 7.0747C0.132568 3.31534 3.14357 0.269531 6.8577 0.269531C10.5718 0.269531 13.5831 3.31625 13.5831 7.0747Z" fill="#252525" fill-opacity="0.4"/>
<path d="M20.9607 7.07398C20.9607 10.6121 19.4551 13.48 17.598 13.48C15.741 13.48 14.2354 10.6112 14.2354 7.07398C14.2354 3.53682 15.741 0.667969 17.598 0.667969C19.4551 0.667969 20.9607 3.53682 20.9607 7.07398Z" fill="#252525" fill-opacity="0.4"/>
<path d="M23.9782 7.07355C23.9782 10.2435 23.4487 12.813 22.7955 12.813C22.1424 12.813 21.6128 10.2426 21.6128 7.07355C21.6128 3.90447 22.1424 1.33398 22.7958 1.33398C23.4491 1.33398 23.9782 3.90379 23.9782 7.07355Z" fill="#252525" fill-opacity="0.4"/>
</svg>
